<?xml version="1.0" encoding="UTF-8"?>
<svg id="Layer_1" xmlns="http://www.w3.org/2000/svg" version="1.1" viewBox="0 0 7000 5000">
  <!-- Generator: Adobe Illustrator 29.5.1, SVG Export Plug-In . SVG Version: 2.1.0 Build 141)  -->
  <defs>
    <style>
      .st0 {
        fill: currentColor;
      }

      .st0, .st1, .st2, .st3, .st4, .st5, .st6, .st7 {
        stroke: inherit;
        stroke-miterlimit: 10;
        stroke-width: 4px;
      }

      .st1 {
        fill: #909796;
      }

      .st2 {
        fill: #e0e3e6;
      }

      .st3 {
        fill: #caccce;
      }

      .st4 {
        fill: #3c403d;
      }

      .st5 {
        fill: #b3b9b8;
      }

      .st6 {
        fill: #737a76;
      }

      .st7 {
        fill: #edf4ed;
      }
    </style>
  </defs>
  <g id="Generative_Object">
    <g>
      <path class="st4" d="M3041.8,2206.4c7.7,3.6,5.4,5.6,5.8,5.8-28.7,33.3-.8,20.4,11.6,34.7,16,36.9,40.1,72,63.7,104.2-12.7-3.1-16.4,11.2-17.4,11.6-46.8,18.5-57.4-27.7-81-57.9,10-45.1-35.8-36-52.1-57.9,7.4-3.7,48.5-44.1,52.1-52.1,1.5,12.4,12.7,9.4,17.4,11.6Z"/>
      <path class="st6" d="M3039,2258.5c5.1,6.5,20.2,13.5,11.6,23.2-8.3,3.3-18.4-20.9-11.6-23.2Z"/>
    </g>
    <g>
      <path class="st0" d="M3024.5,2194.8c-3.6,8-44.7,48.4-52.1,52.1-60.7,30.5-232.3,20.7-286.6-17.4-26.2-18.3-25.2-58.6-57.9-81-41.7-28.6-116.1-32.8-167.9-75.3-44.7-36.6-129.4-172.9-107.1-228.7,10.9-27.4,138.3-162,167.9-208.4,69.7-109.3,103.6-201,112.9-332.9,25.3-20.9,353.5,151,373.4,211.3-107.3-85.1-229.5-154.8-361.8-193.9-9.8,158.1-52.7,333.3-141.8,466,1.3,23.5,61.7-29.4,66.6-31.8,17.8-8.8,106.1-37.7,107.1-43.4,7.1-39.8-107.8,12-121.6,23.2l112.9-332.9c107.6,5.2,192.7,71.8,280.8,124.5-38.6,22.4-123.7,67-95.5,118.7l110-110c60.8,162.2,107.5,311.9,89.7,489.2-68.8,4.4-87,68-153.4,55,21.2-5.4,97.4-33,95.5-60.8-2.4-36.3-39.9,29.8-43.4,31.8-6,3.6-129.9,19.4-107.1,49.2,83.1,4.1,130-29.5,199.7-55,8,6.6-13.7,135.9-20.3,150.5Z"/>
      <path class="st4" d="M2865.3,1801.2c71.8,56.7,169.9,179.6,11.6,191-27.8-54.1,81.3,6.4,72.4-72.4s-94.8-78.2-83.9-118.7Z"/>
      <path class="st4" d="M2952.1,1650.7c55.8-6.4-7.5,82.5-52.1,63.7s37.1-62,52.1-63.7Z"/>
      <path class="st4" d="M2621.5,1816.4c-30.4,47.3,77.3,29.7,80.2-18.6,2.2-36.6-72,5.9-80.2,18.6Z"/>
    </g>
    <g>
      <path class="st4" d="M3059.2,2246.9c-12.4-14.4-40.3-1.4-11.6-34.7,16.4,10.7,26.7,18,40.5,31.8l-28.9-81-17.4,43.4c-4.7-2.2-15.9.8-17.4-11.6,6.5-14.6,28.3-143.9,20.3-150.5-69.7,25.5-116.6,59.1-199.7,55-22.8-29.8,101.1-45.6,107.1-49.2,3.5-2.1,41-68.2,43.4-31.8,1.8,27.8-74.4,55.4-95.5,60.8,66.4,13,84.6-50.6,153.4-55,17.8-177.3-28.9-327-89.7-489.2l-110,110c-28.1-51.7,56.9-96.3,95.5-118.7-88.1-52.7-173.2-119.3-280.8-124.5l-112.9,332.9c13.7-11.2,128.6-62.9,121.6-23.2-1,5.7-89.3,34.6-107.1,43.4-4.9,2.4-65.3,55.3-66.6,31.8,89.1-132.7,132.1-307.9,141.8-466,132.3,39.1,254.5,108.8,361.8,193.9-19.9-60.3-348.1-232.2-373.4-211.3-9.3,131.8-43.2,223.5-112.9,332.9-29.6,46.4-156.9,181-167.9,208.4-22.3,55.8,62.4,192,107.1,228.7,51.8,42.5,126.1,46.6,167.9,75.3,32.7,22.4,31.7,62.7,57.9,81,54.3,38.1,225.8,47.9,286.6,17.4,16.3,21.9,62.1,12.8,52.1,57.9-7.4-9.4-20.5-37.6-34.7-31.8,63.3,134.3,261.4,204.2,222.9,373.4,59.8-105.2-40.7-209.7-107.1-283.7,1-.4,4.6-14.7,17.4-11.6,37.1,50.7,112.7,129.8,121.6,193.9,12,87.1-48.4,169.8-43.4,257.6,122.3-237,32-486.2-72.4-709.1,104,147.4,163.8,366,138.9,550-15.5,114.5-98.6,214.7-34.7,330-114-2.6-154.1-123.6-138.9-220,2.3-14.5,30.4-54.5,28.9-63.7-7.5-49-142.6-37.7-162.1,11.6,244.6-71.5,70.3,20.3,28.9,104.2-35.2,71.4-43.2,162.6-55,240.2-33.1-28.1-43.7-152.7-75.3-173.7-52.9-35.2-185.5,4.9-240.2-55,71-58.2,195.3-35.5,248.9,34.7,26.6,34.9,28.6,99.1,60.8,130.3,15.8-59,.8-126-46.3-167.9-8.9-7.9-120.1-74.1-127.4-75.3-31.4-5-112.6,29.3-133.1,52.1-10.9,12.1-39.5,118.2-37.6,124.5,2.9,9.6,38.4,11.5,46.3,46.3,10.3,45.5-91.7,343.2-115.8,405.2-92.1,237.6-339.9,722.7-613.6,370.5-129.4-166.5-228.8-972.4-162.1-1163.6,39.7-113.7,331.7-239.3,434.2-306.8-95.9-63.7-126.3-165.5-104.2-277.9,4.1-21,49.8-127.6,37.6-136-3.1-2.2-29.2,43-37.6-37.6-5-47.6,12.7-108.5,34.7-150.5-20.5,23.9-97.9,21.1-98.4,34.7-1.2,32.8,57.7-5.2,57.9,17.4-396.2,148.9-432.5-620.2-8.7-483.4,14.1,4.5,30.3,30,40.5,28.9s100.6-92.9,133.1-110c66.7-35,92.1-19.6,138.9-34.7,30.4-9.9,57.6-45.4,104.2-52.1,228.5-33,593.3,281.7,651.3,500.7l8.7,211.3c-35.6-47.2-22.5-122.4-49.2-170.8-4.2-7.5-111.7-109.1-124.5-118.7-25.3-19-292-169-303.9-147.6-18.5,67.8,66.6,47.7,118.7,66.6,32.1,11.6,198.4,106.5,211.3,130.3s70.6,215,75.3,237.3c8.6,40.7-2,88.4,5.8,127.4,11.8,58.8,131.9,171.6,173.7,225.8,17.5,22.7,87.4,149.4,95.5,153.4,39.8,19.5,128.5-2.4,176.6,49.2,34.1,36.6,92.4,223.3,121.6,283.7,98.2,203.2,217.6,395.8,303.9,604.9,57.2-227.1,59-466.8,118.7-691.8l55-43.4,1551.4,5.8c50.7,16.1,50.6,36.6,43.4,83.9l-335.8,1140.4c218,11.4,434.7-37.8,651.3-31.8,65.5,24.8,14.8,50.2-23.2,63.7-255.5,90.6-902.2,129.3-1198.3,156.3-266,24.2-563,54.7-827.8,63.7-238,8.1-481.5-44.8-709.1,14.5l46.3,28.9-20.3,31.8c707.9-34.5,1416.7-77.9,2118.8-173.7,229.5-31.3,501-105.5,723.6-121.6,5.5-.4,44.6-6.2,34.7,11.6-730.8,130.5-1469.7,217.2-2211.4,266.3-381.4,25.2-765.2,24.8-1146.2,57.9-526.1,45.7-1117.6,179.4-1638.3,173.7-38.1-.4-83.4,9-101.3-31.8-9.4-52.1,85.6-70.5,124.5-78.2,184.9-36.2,420.7-35.3,613.6-57.9,283.9-33.2,585.9-90.3,868.3-110,223.1-15.5,459.3,12.4,677.3-40.5-81.8,1.2-181.7-24.6-260.5-23.2-406.7,7.7-971.7,148.4-1366.2,98.4-58.6-7.4-135.1-44.3-57.9-98.4,5.3-3.7,125.3-39.7,86.8-52.1l-1114.4,43.4,1126-55,14.5,20.3c-.3,33.9-187.2,57.9-112.9,112.9,43.8,32.4,461.7,4.9,544.2,0,287.5-17.2,574.9-56.7,862.6-75.3,14.9-13,16.8-14,8.7-31.8-19.3-42.2-184.8-50.1-228.7-49.2-66.2,1.4-251.6,46.2-301,34.7-24.1-5.6-27.7-28.1-40.5-28.9s-51.2,22.2-63.7,23.2c-28.7,2.2-152.2,11.5-165-8.7-34.1-54,184.5-261.3,234.5-275,55.1-15.1,112.4,5.5,156.3,0,198.7-25,354.2-158.6,590.5-185.2,67.8-7.6,177.8,32.5,193.9-60.8,31-179.4-64.4-403.3-75.3-573.1-1.2-18.9-3.6-97.3,20.3-101.3,33.8-5.7,34.6,170.7,37.6,199.7l8.7,8.7c5.4-19.5,35.9-33.4,49.2-14.5-.2,53.6,72.2,408.1,112.9,408.1,15.2,0,146.1-97.2,40.5,40.5,26-17.3,261.8-10.3,217.1,49.2-168.6-15.7-323.1,77-483.4,118.7-85.7,22.3-175.6,25.9-260.5,52.1,41.4,82.2,55.4,171.2,49.2,263.4l662.8-78.2c23.4-13.9,93.8-399.9,95.5-454.4-96.7-226.7-223.8-438.2-330-659.9-54.7-114.3-71.6-311.8-237.3-277.9,17.6,40.9,30.8,100.8,23.2,144.7-1,5.5-16.3-9-17.4,0-5.6,47.3,2.5,100.1-5.8,150.5s-84.1,257.3-101.3,251.8c-30.5-96.7,30.6-205.7,37.6-309.7,15.5-228.9-60.9-357.4-211.3-518.1l72.4,234.5c-29.1-21.5-35.9-71.2-57.9-98.4-1.8-2.3-17.5-22.9-17.4-5.8l98.4,225.8c-10.5,8.3-19.7-16.8-23.2-23.2-7.6-14-68.9-179.8-78.2-176.6l37.6,124.5c-26.4-4.7-46.4-40.7-63.7-60.8Z"/>
      <path class="st0" d="M2326.9,1957.5c29.6,41.3,50.6,97,86.8,133.1,94.5,94,251.2,63.1,269.2,228.7,12.6,116.2-32.3,160.2-52.1,260.5-10.1,51.1-40.8,313.5-57.9,335.8-11.6,15.1-82.9,2.2-101.3-2.9-92.7-25.6-132.2-141.8-222.9-37.6-29.4,33.8-60.6,107.1-40.5,150.5,19.6,42.5,279.8,142.5,332.9,83.9,12,112.5-202.1,16.1-260.5-5.8-94.2-35.3-74.8-72-179.5,5.8-100.3,74.6-130.3,174.3-162.1,289.4-86.1-125.5,94.2-231.8,159.2-315.5,99.5-128,30.2-194.8,5.8-335.8,29.7,7.7,70,171,81,162.1,24.5-74.7,7-146.9-28.9-214.2-29.1-54.5-181.2-228.3-115.8-46.3,32.1,89.3,90.7,187.3,98.4,289.4,13.6,178.7-329.4,272.4-214.2,480.5l8.7,8.7c49.9-63.7,43-148.6,89.7-217.1,14.5-21.2,126.3-125.9,147.6-130.3,46.8-9.5,161.7,64.7,220,81,44.2,12.4,90.8,15.1,136,20.3-64.5,170.1-153.6,360.1-266.3,503.6-156.4,199.2-255.4,137-347.3-69.5-79.1-177.6-187.3-891.4-92.6-1047.8,22.4-37,287-227.7,321.3-228.7,47.1-1.4,272,169.4,280.8,222.9,10.2,62.5-102.5,190.1-86.8,237.3,7.4,22.2,189.9,124.9,214.2,81,9.1-16.4,16.4-152.1,23.2-185.2,26-128.1,129.4-392.1,8.7-495-54.3-46.3-166.4-45.7-211.3-107.1-9.1-12.4-53.4-132.5-43.4-136Z"/>
      <path class="st0" d="M3177.9,3972c59.5.1,51.6,22.3,107.1,43.4-1.9,33.9-616,66.1-674.4,72.4-368.5,39.5-735.8,105.4-1105.7,133.1-67.1,5-362.3,30.5-405.2,17.4-36-11.1-11.5-46,11.6-57.9,90.4-46.6,621.8-70.2,764.1-86.8,432.9-50.7,864.6-122.4,1302.5-121.6Z"/>
      <path class="st0" d="M2147.5,1835.9c-11.8,65-32.7,151.3-20.3,217.1,4.7,24.8,96.4,152.5,104.2,115.8-85.2-88.9-117-216.8-55-327.1,26.5.5,9.6,143.8,14.5,170.8,7,38.4,61.1,98.5,78.2,136,18.7.6-24.8-130.7-26.1-147.6-2.7-37.1.8-122.9,26.1-147.6,25.8,2.4,28.5,198.7,55,234.5,35.5,47.9-29.9-113.2-8.7-112.9,12.9,27.8,14,68.8,26.1,95.5,61,134.6,258.7,66.7,283.7,248.9-1.1,188.9-73.4,370.5-95.5,558.6-27.4,12.7-143.5-51.9-165-78.2,71.1-132.6,222.9-341.2,55-460.2-38.9-27.6-90-33.1-121.6-52.1-189.8-114.5-270.2-235.2-150.5-451.5Z"/>
      <path class="st0" d="M5325.6,3740.5l14.5,8.7c-26.2,59.3-23.2,75.8-89.7,89.7-431.2,90.4-1271.3,132-1713.5,104.2-45.5-2.9-399.5-24.8-408.1-43.4s-.8-25.9,2.9-31.8c3.9-3.2,41.2,11.4,46.3,11.6,283.8,8.9,566,34.9,851,17.4,426.7-26.2,876.8-81.5,1296.7-156.3Z"/>
      <path class="st0" d="M2685.8,2241.1c69.4,34.8,147.2,39,222.9,43.4l-8.7,523.9c-93.2-61-175.1-128.7-275-31.8l-11.6-5.8,49.2-234.5,205.5,165c-7.5-63.1-197-146-202.6-185.2s33.2-92.1,34.7-121.6c2.6-50.7-20-104.1-14.5-153.4Z"/>
      <path class="st0" d="M2072.2,2061.7c32.3,104.1,96.8,152.1,176.6,217.1-109.1,46.1-405.3,192.7-451.5,301-52.9,123.7-17.5,444.4,0,584.7,25.8,207.1,148.6,942.8,468.9,538.4,121.8-153.8,213.2-357.4,283.7-538.4l11.6,5.8c-36.6,174.2-238,650.3-431.3,680.2-117.8,18.2-247.2-135.7-286.6-234.5-64.9-162.7-131.6-807.6-104.2-978.3,17.6-109.7,80.5-142.2,165-199.7,87.9-59.9,203.5-120.7,298.1-165-7.3-35.2-58.9-29.8-81-63.7-1-1.5-2.7-29.7-5.8-34.7-20.7-34-56.8-71.8-43.4-112.9Z"/>
      <path class="st0" d="M2871.1,3595.7c40.9,6.1,70,137.3,23.2,162.1-20.5,10.8-119.5,8.4-156.3,17.4-77.5,18.8-131.9,112.7-196.8,57.9l182.4-95.5c1.4-11-6.3-9.3-14.5-8.7-65.2,4.9-212.7,128.6-301,115.8,77.4-48.4,168.7-86.2,234.5-147.6-8.2-13.7-172.2,72.6-193.9,83.9-20.4,10.6-125.3,96-141.8,60.8-18.2-38.7,279.5-156,306.8-179.5.6-17.1-104.4,22.5-112.9,26.1-61.5,25.8-136.1,76.5-191,115.8-15.1.6,7.2-29.8,8.7-31.8,5.6-8,78.2-87.5,83.9-89.7,9.1-3.5,28,8.8,46.3,0,44-21.1,100.2-64.3,150.5-69.5,33.4-3.4,86.5,8.1,127.4,5.8,25-1.4,135.3-24.6,144.7-23.2Z"/>
      <path class="st0" d="M2309.5,2843.2c29.9-4.7,107.6,68.7,150.5,81,124.7,35.8,198.2-35.1,136,170.8l-14.5-49.2c-26.8,6.9-12.5,39.3-34.7,52.1-70.4,40.7-240.1-12.8-301-57.9-72.7-53.8,21.2-190.2,63.7-196.8Z"/>
      <path class="st0" d="M2483.2,1077.6c24.7-3.3,125.5,5.5,144.7,17.4,27,16.6-45.1,9-49.2,31.8,1.1,5.4,5.5,17.3,8.7,20.3,9.4,8.8,248.3,69.4,240.2,95.5-79.8-12.9-262.1-115.2-312.6-23.2-27.4,49.8-188.4,441.6-191,480.5-.5,7.7-2,27.3,2.9,31.8l43.4-8.7c-8.2,9.2-67.3,74.8-37.6,78.2l269.2-356c-28.9,76.1-69.4,147.2-115.8,214.2-42.8,61.8-157.5,159.3-150.5,231.6,6,62.4,93.8,184.3,147.6,217.1,51.8,31.5,149.6,31.8,162.1,98.4-89.2-71.1-177.1-64.3-251.8-165-71.9-96.8-96.7-205.3-81-324.2-16.4-29.4-38.7,71.5-52.1,63.7,8.6-32.8,16.6-66.9,28.9-98.4,57.6-147.5,170.8-321.5,214.2-468.9,16-54.2,16.4-80.2-49.2-89.7l-110,191c-4.1-47.9,49-100.6,49.2-153.4-96.8,10.7-285.4,450.6-312.6,457.3-25.6-7.1,7.6-67.2,17.4-86.8,49.4-99.8,278.8-440.3,385-454.4Z"/>
      <path class="st0" d="M4069.4,2536.4l-153.4,1021.7c-29.9,105.8-33.5,222.8-83.9,321.3l17.4-150.5-46.3,52.1c-219.2-.2-436.4,23.9-654.2,40.5-6.5.5-32.8,17.6-34.7,17.4-3.3-.4-29.2-29.4-57.9-34.7-39.2-7.2-175.3-15.2-214.2-11.6-62.3,5.9-120.5,60.8-188.1,37.6,53.2-60.3,236.9-32.7,266.3-81,30.7-50.5,1.5-139.7-43.4-176.6,80.1,13.4,67.6,146,57.9,208.4,53.1-45.9,140.1,12.5,196.8,17.4,59.7,5.1,111.1-19,167.9-23.2,187.4-13.8,371.9-21.8,555.7-63.7l214.2-1175.2Z"/>
      <path class="st0" d="M3478.9,2860.5c32.5,77.5,55.5,348.7,112.9,402.3,27.6,25.8,47.8-33.1,81-17.4-127.8,178.1,118,10.2,173.7,81-155.9-5.1-296,79.9-442.9,118.7-105.2,27.8-215,48.7-318.4,75.3-7.1,1.8-171.9,15.3-133.1,34.7,108.7-5,162.1,120.6,144.7,214.2-17.7-6.7-128.6-18.2-133.1-23.2-9.7-10.6-1.7-227.9-98.4-179.5,52.8-36.4,147.4-79.9,214.2-92.6,10-1.9,12.1,14.6,28.9,11.6,67.6-12,467.9-76,483.4-136,13-50.3-154.9-399.5-112.9-489.2Z"/>
      <path class="st0" d="M5875.5,3694.2c24.5-1.2,157.2-6.4,159.2,14.5-12.2,16-31.4,20.6-49.2,26.1-100.3,30.6-285.7,55.7-393.6,69.5-31.6,4-262.1,33.5-269.2,14.5,12.2-14.9,29.6-76.8,43.4-83.9,30.2-15.5,284.5-13.8,341.5-17.4,52.5-3.3,116.8-20.7,167.9-23.2Z"/>
      <path class="st0" d="M3455.8,2877.9c12.5,72.8,24.7,145.6,43.4,217.1,12.3,47.1,91,234.1,66.6,263.4-47.8,57.4-323.6,56.9-405.2,75.3-53.5,12-160.6,49.2-214.2,69.5-73.4,27.8-125.5,96.5-217.1,72.4,168.4-46.5,312-150.8,489.2-170.8,131.5-14.9,247.4,54.5,257.6-124.5,6.2-107.4-44.4-250.1-40.5-341.5.9-21.5,19.6-38.1,20.3-60.8Z"/>
      <path class="st0" d="M2911.6,2345.3c37.8,116.3,161.6,147,217.1,251.8-90.9,22-169.9,59-211.3,147.6l-5.8-399.4Z"/>
      <path class="st0" d="M3079.5,1963.3c91.9,125.9,237.3,248.9,269.2,408.1,31.1,155.3-4.5,305.8-78.2,442.9,31.8-214.3,93-418.5-26.1-622.3-47.7-81.7-141.7-137.8-165-228.7Z"/>
      <path class="st0" d="M3756.8,3792.6c13.5,0,27,0,40.5,0,14.2,8.1,1.8,18.6-5.8,23.2-48.6,29.4-256.1,12.2-324.2,17.4-108.4,8.2-229.8,63.8-338.7,14.5-.1-31.6,581.9-54.7,628.1-55Z"/>
      <path class="st0" d="M3814.7,3809.9c17.4-.8-6,84.4-11.6,86.8l-425.5-31.8c112.9-35.7,240.1-6.5,356-20.3,27-3.2,67.6-7.5,81-34.7Z"/>
      <path class="st0" d="M3039,3537.9c9.6-1.4,69.5-2,75.3,0,36.1,12.2,66.5,237.2,40.5,248.9-49.9,22.6-38.3-82.4-43.4-101.3-16.3-60.1-46.4-111.7-104.2-138.9,9.8.2,26.5-7.9,31.8-8.7Z"/>
      <path class="st0" d="M2460.1,1141.2l-335.8,694.7c96.3-238.8,193.6-478.9,335.8-694.7Z"/>
      <path class="st0" d="M2489,1152.8c15.6.6,5,40.4,2.9,49.2-29.2,120.8-135.5,269.2-176.6,390.8-11.7-3.5,43-124.6,14.5-136,21.8-33,142.1-304.6,159.2-303.9Z"/>
      <path class="st0" d="M1950.6,1222.3c8.7-.4,26.6-3.5,17.4,11.6-168,20.4-191,207.4-159.2,344.4l78.2,124.5c-189.4-89.6-150.2-469.8,63.7-480.5Z"/>
      <path class="st0" d="M2940.5,2322.2c82.9,99.9,200.4,125.7,217.1,275,8.5,76.4-42.3,255.4,0,312.6s70.7,30.9,49.2,43.4c-30.2,17.6-89.5-71.7-95.5-101.3-22.9-113.6,64.3-155.1,23.2-289.4-32.9-107.5-150.5-142.1-193.9-240.2Z"/>
      <path class="st0" d="M2355.9,1199.1c10.2,5.9,5.2,17.3,2.9,26.1-4.6,17.8-110.6,230.2-121.6,243.1-16.1,18.9-26.3,5-46.3,28.9s-44.2,71-72.4,101.3l237.3-399.4Z"/>
      <path class="st0" d="M2263.2,2287.4c21.8-1.7,147.7,62.6,167.9,81,131.2,119.8-26.2,302.7-75.3,428.4-17.7-1.9-5.7-23.1-2.9-31.8,29.2-91.8,158.9-250,92.6-347.3-35.1-51.5-182.8-132.3-246-89.7.5-11.3,59.9-40.2,63.7-40.5Z"/>
      <path class="st0" d="M2599,1291.7c14.5-5.9,19.9,7.7,20.3,20.3.2,8.2-44.9,140-52.1,156.3-41,92.1-117.2,175.8-182.4,251.8l214.2-428.4Z"/>
      <path class="st0" d="M2810.3,1210.7c118.7,63.8,303.3,259.7,298.1,405.2-31.3-73.1-36.1-138.6-104.2-191-22.2-17.1-61.2-26.2-81-40.5-54.9-39.7-103.1-88.1-165-118.7l243.1,133.1c-95.3-40.2-112-120.6-191-188.1Z"/>
      <path class="st0" d="M1991.2,1251.2c24.2,5.1-61.9,177.8-60.8,205.5l8.7,147.6c-34-62.6-23.9-125.1-31.8-188.1-1.1-8.5-26.1,3.7-17.4-34.7,1.8-8,93.2-131.9,101.3-130.3Z"/>
      <path class="st0" d="M2321.1,1477l-89.7,332.9-8.7,8.7-8.7-14.5,60.8-211.3-104.2,214.2c12.8-119.9,106.6-219.3,150.5-330Z"/>
      <path class="st0" d="M2564.3,1297.5l-196.8,393.6,136-350.2c13.6-28.4,32.9-34.6,60.8-43.4Z"/>
      <path class="st0" d="M2263.2,1176c12.1-2.2,5.2,9.7,2.9,14.5-10.8,22.5-83.4,92.6-104.2,121.6-63.2,87.9-118.8,180.9-147.6,286.6l2.9-49.2c48-138.1,126.4-285.7,246-373.4Z"/>
      <path class="st0" d="M3024.5,2304.8c23.6,30.1,34.2,76.4,81,57.9,66.4,74,166.9,178.5,107.1,283.7,38.6-169.2-159.6-239.1-222.9-373.4,14.2-5.8,27.4,22.4,34.7,31.8Z"/>
      <path class="st0" d="M2298,1749.1l-2.9,101.3c-67.5-64-66.8,118.2-63.7,162.1.5,6.9,21.7,70,14.5,72.4-69.9-77.7-25.2-173.1-55-257.6,77.8,39.9,79.8-21.2,107.1-78.2Z"/>
      <path class="st0" d="M2049,2588.5c68.6,73.1,139.1,160,133.1,266.3-30.8-95.8-131.4-167.1-133.1-266.3Z"/>
      <path class="st0" d="M1869.6,1291.7l-37.6,101.3c-11.9,113.3,20.8,203.8,78.2,298.1-119.9-89.1-135-287.3-40.5-399.4Z"/>
      <path class="st0" d="M2558.5,3578.4c86.9-9.4,200.1,23.1,292.3,8.7-144.2,34.3-279.3-11-413.9,66.6,30.2-37.5,72.4-69.9,121.6-75.3Z"/>
      <path class="st0" d="M2025.9,1257l20.3,20.3c-23.2,40.4-65.9,112.7-75.3,156.3-12,55.5,7.9,100-14.5,147.6-45-104.6,20.5-231.5,69.5-324.2Z"/>
      <path class="st0" d="M2298,1390.2l-173.7,405.2c14.5-149.2,95.9-280.9,173.7-405.2Z"/>
      <path class="st0" d="M3148.9,2501.6c96.8,114.5-17.6,271.1,34.7,411-71-120.3,21.7-275.1-34.7-411Z"/>
      <path class="st0" d="M2228.5,2328c55.7-18,241.6,84.8,222.9,165-64.8-60.6-134.5-150.3-228.7-153.4-5.7-2.9,4-11,5.8-11.6Z"/>
      <path class="st3" d="M2570,1222.3c159.2,14.2,253.2,105.8,370.5,196.8,41.7,32.3,108.7,40.8,124.5,112.9-99.7-78.9-229.3-209-344.4-257.6-40-16.9-86.7-22.4-127.4-34.7-6.9-2.1-33.2-6.3-23.2-17.4Z"/>
      <path class="st0" d="M2251.7,1262.8c10,2.8-6,27.1-8.7,31.8-61.3,108.4-205.9,230.2-179.5,364.7-28.6,47.8-36.2-62.2-28.9-81,10.9-28.3,33.5-32.6,34.7-34.7,56.3-97.8,108.3-194,182.4-280.8Z"/>
      <path class="st0" d="M2315.3,1129.7c9.8,1,13.1,4.3,5.8,11.6-134.6,29.1-167.1,142.5-251.8,228.7,16.2-26,21.2-76.3,34.7-98.4,18-29.5,180.3-144.9,211.3-141.8Z"/>
      <path class="st0" d="M1892.7,1297.5c-48.7,99.5-7.1,202.9-17.4,306.8-37.8-98.5-54.7-218.5,17.4-306.8Z"/>
      <path class="st0" d="M2326.9,1147c7.1-1.4,18.9,2.3,20.3,8.7,1.6,7.4-95.6,87.5-110,104.2-60.4,69.9-107.9,152.1-159.2,228.7-.9-55.6,225.2-336.8,248.9-341.5Z"/>
      <path class="st0" d="M2182.2,1552.2l-92.6,283.7c-19.3-105.8,39.2-199.2,92.6-283.7Z"/>
      <path class="st0" d="M2489,1332.3c-38.2,124.7-83.9,249.1-144.7,364.7,32.8-126.4,90.5-246.6,144.7-364.7Z"/>
      <path class="st0" d="M2810.3,1210.7c-68.9-37-151.6-44.5-214.2-83.9,77.5-24,157.1,35.2,214.2,83.9Z"/>
      <path class="st0" d="M2934.8,2270.1c12.9-4.3,17.7,2.2,26.1,8.7,21.2,16.4,82.3,110,107.1,136-27-20.4-125.6-92.4-136-118.7-3.1-8-10.4-21.6,2.9-26.1Z"/>
      <path class="st0" d="M3004.2,2698.5l-49.2,60.8-26.1,83.9c-46.5-59.6,21.9-120,75.3-144.7Z"/>
      <path class="st0" d="M3403.7,2675.3l23.2,196.8c-15.2-16.2-45.5-196.5-23.2-196.8Z"/>
      <path class="st0" d="M2940.5,2356.9l156.3,173.7c-7.3-13.4-192.8-156.5-156.3-173.7Z"/>
      <path class="st3" d="M2581.6,1193.3c24-8.4,267.3,59.5,257.6,83.9l-257.6-83.9Z"/>
      <path class="st0" d="M2656.9,1280.2c34.2-5.7,161.7,57.9,188.1,89.7-65.6-26.8-128.3-61.9-196.8-81,3.1-1.9,6.6-8.3,8.7-8.7Z"/>
      <path class="st0" d="M2709,2796.9c29.5-1.5,60.7-1,83.9,20.3-9.2.2-182,15.8-141.8-8.7,16-.7,44.2-10.9,57.9-11.6Z"/>
      <path class="st0" d="M2546.9,1204.9c11.5,10.3-9.3,30.1-2.9,49.2,4.9,14.7,45.7,20.6,40.5,28.9l-72.4,14.5c-4.6-2.6,18.1-88.1,34.7-92.6Z"/>
      <path class="st3" d="M3253.1,3427.9c26.6-2.4,54.3,1.8,81,0-50.3,25.2-132.2,19.7-193.9,37.6-7.5-14.1,104.6-36.9,112.9-37.6Z"/>
      <path class="st0" d="M1985.4,1563.8l28.9,104.2c-35.4-32.7-79-61.3-28.9-104.2Z"/>
      <path class="st0" d="M3079.5,2623.2c45-5.8,62.8-6.3,55,43.4-32.9-14.1-50.3-26.9-89.7-20.3-8.9-10.7,32.7-22.9,34.7-23.2Z"/>
      <path class="st3" d="M1887,1523.3c8.3-2,25.8,109.7,31.8,124.5,14,34.4,34,46,55,72.4-72.8-32.8-85.2-125.4-86.8-196.8Z"/>
      <path class="st3" d="M2570,1338.1c-17.4,65.7-60.9,126-92.6,185.2,13.4-67.1,58.7-127.5,92.6-185.2Z"/>
      <path class="st0" d="M2031.7,1343.8l-52.1,167.9c-10.7-57.8,27.1-117,52.1-167.9Z"/>
      <path class="st0" d="M3073.7,2032.7l40.5,115.8c-30.7-31.8-53.6-69-40.5-115.8Z"/>
      <path class="st0" d="M1915.9,1575.4c20.7,37.2,31.4,80.3,66.6,107.1l-2.9,14.5c-22.4.3-71.3-95.7-63.7-121.6Z"/>
      <path class="st0" d="M3047.6,2212.2c-.3-.2,1.9-2.2-5.8-5.8l17.4-43.4,28.9,81c-13.8-13.8-24.1-21.1-40.5-31.8Z"/>
      <path class="st0" d="M1950.6,1262.8l-52.1,75.3c-18.8-9.3,40.1-72.9,52.1-75.3Z"/>
      <path class="st2" d="M3710.5,3294.7c8.8,0,26.6-3.8,17.4,11.6l-72.4,8.7c8.7-8.6,46.1-20.2,55-20.3Z"/>
      <path class="st3" d="M3351.6,2316.4l23.2,86.8c-9.4,5-29.7-75.3-23.2-86.8Z"/>
      <path class="st0" d="M2112.7,1610.1c30.9-2.9-41.2,67.1-31.8,26.1,7.6-2.7,29.8-25.9,31.8-26.1Z"/>
      <path class="st1" d="M2703.2,2831.6l55,8.7c-8.7,1.9-62.7,12.2-55-8.7Z"/>
      <path class="st1" d="M2020.1,1471.2c18.6,7.8-5.2,49.1-11.6,57.9l11.6-57.9Z"/>
      <path class="st3" d="M2564.3,3103.7c24.4-1-6.2,48.8-11.6,46.3l11.6-46.3Z"/>
      <path class="st1" d="M2060.6,1326.5c11.3,3.7-17,53.5-23.2,57.9-6.6-9.5,19.2-59.2,23.2-57.9Z"/>
      <path class="st3" d="M2957.9,2831.6c5.5,14.2-1.3,41-11.6,52.1-7.4-15.7,0-39.5,11.6-52.1Z"/>
      <path class="st5" d="M2911.6,1563.8c19.7,4.8-28.4,34-31.8,26.1l31.8-26.1Z"/>
      <path class="st1" d="M2491.9,3781c-11.7,8.2-23.1,25-40.5,20.3,8.9-14.5,30.4-15.5,40.5-20.3Z"/>
      <path class="st1" d="M3177.9,2513.2c2.4-.4,19.1,22.6,11.6,28.9-5.2-2.2-19.8-27.7-11.6-28.9Z"/>
      <path class="st1" d="M2491.9,3781c7-4.9,11.9-26.9,28.9-14.5.9,2.2-25.6,12.9-28.9,14.5Z"/>
      <path class="st1" d="M1907.2,1268.6c3.7-2.2,7.5-20.5,23.2-8.7-5.7,12.2-19.3,6.5-23.2,8.7Z"/>
      <path class="st7" d="M3108.4,3885.2c13.7,1.7,3.6,26-5.8,11.6-3.8-5.8,5.1-11.7,5.8-11.6Z"/>
      <path class="st1" d="M1907.2,1268.6c-1.6,1-7.4,19.4-17.4,8.7,4.2-9.6,14.4-7,17.4-8.7Z"/>
      <path class="st1" d="M2813.2,2837.4c8.8-3.2,12.7,8.5,5.8,11.6-8.5,3.7-12.8-9.1-5.8-11.6Z"/>
      <path class="st1" d="M3041.8,1546.5c-.6-.8-14.3,3.5-11.6-8.7,6.1-6.8,11,8.2,11.6,8.7Z"/>
      <path class="st1" d="M3041.8,1546.5c.4.6,15.5,5.5,8.7,11.6-12.2,2.7-7.8-10.9-8.7-11.6Z"/>
      <g>
        <path class="st0" d="M4127.3,2495.8l1545.6,11.6,20.3,20.3c-96,397.4-220.8,792.6-335.8,1186.7-20.4,25.3-344,71.3-396.5,78.2-365.3,47.6-738.5,65.9-1105.7,98.4,26.5-118.3,57-236.4,78.2-356,53.7-303.5,71.7-662.6,144.7-955.2,8-32,10.6-75.5,49.2-83.9Z"/>
        <g>
          <path class="st4" d="M5510.8,2692.7c7.9-1.1,16-1.9,14.5,8.7-226.1,141.6-434,312.7-665.7,445.7-1.8,30.2,136.6-43.3,147.6-49.2,106.4-57.7,388-298.8,474.7-312.6s51.8,2.6,75.3,0c9.1,6.2,11,16.2,8.7,26.1-10.2,43.2-550.5,345-619.4,405.2-1,30.2,104-27.3,112.9-31.8,80.9-41.8,378.2-267.6,451.5-243.1,5.3,4.5,6.4,4,5.8,11.6-3.6,44-653.5,423.6-709.1,523.9-1.6,19,98.9-44.3,107.1-49.2,71.9-43.3,483.5-343.8,521-341.5,20.9,1.2,31,18.2,26.1,37.6-14,54.9-616.2,411.5-694.7,486.3,46,16.7,96.7-21.1,136-43.4,107.4-60.9,374.7-294.3,463.1-318.4,8.5-2.3,20.3-7.2,26.1,2.9,3,11.5-16,59.2-23.2,69.5-19.9,28.7-508.7,348.1-547.1,356-63.3,13.2-78.8-10.3-26.1-49.2l-52.1-11.6c7.1-12.4,15.3-22.4,26.1-31.8,148.4-130.7,410.3-257.4,578.9-382.1,50.9-37.6,183.4-156.7,23.2-69.5-76,41.4-544.9,389-578.9,382.1-54.8-11.2,94.9-131.1,104.2-138.9,184.5-154.6,405.5-263.6,593.4-413.9-27.9-5.7-70.9,14.1-95.5,26.1-74.8,36.4-393.2,273.7-451.5,254.7-7.2-2.3-16.2-16.6-14.5-26.1,6.8-36.8,568.4-341.5,625.2-411-1.8-11.9-50.9-10-60.8-8.7-117.2,15.9-411.4,305.7-567.3,358.9-19.7,6.7-108.3,35-83.9-8.7l668.6-454.4Z"/>
          <path class="st0" d="M5366.1,3265.8c15.7,2.4.2,32.2-2.9,37.6-17.6,30.5-512.8,356.4-552.8,361.8-9,1.2-23.7,1.4-31.8-2.9,81.2-28.3,552.5-401.9,587.6-396.5Z"/>
        </g>
        <g>
          <path class="st4" d="M5412.4,2547.9c9.5.3,31.8,3.9,31.8,14.5,0,20.9-260.1,168.9-298.1,193.9-114.7,75.3-425.3,316.1-532.6,347.3-127.3,37.1-23.5-54.1,11.6-81,104.9-80.6,694.4-477.5,787.3-474.7Z"/>
          <path class="st0" d="M5412.4,2559.5c20.6,2-10,23.1-17.4,28.9-70.8,56.6-741.9,490.3-793.1,503.6-11.4,3-24.1,9.6-31.8-2.9,196.7-139,403.3-297.1,610.7-419.7,44.1-26.1,188.1-114.3,231.6-110Z"/>
        </g>
        <g>
          <path class="st4" d="M5452.9,2629c11.5-.8,23.2.5,34.7,0,22.9,13.8-63.3,83.3-75.3,92.6-66.3,51.9-659.2,433.1-700.5,434.2-63.7,1.7,11.2-60.3,28.9-75.3,79.2-66.9,643.2-446.8,712-451.5Z"/>
          <path class="st0" d="M5464.5,2640.6l5.8,11.6c-5.5,19-225.5,162.1-260.5,185.2-32.2,21.4-493.9,324.7-506.5,298.1,41.9-39.4,89.5-73.7,136-107.1,138.8-99.7,324-234.4,468.9-318.4,50.4-29.2,98.3-58.2,156.3-69.5Z"/>
        </g>
        <g>
          <path class="st4" d="M5343,3387.3c29.5-1.1,21,59.9,14.5,78.2-29.5,82.1-323.3,192.3-411,179.5l396.5-257.6Z"/>
          <path class="st0" d="M5337.2,3410.5c5.5.3,11.1-2.1,14.5,2.9,38.4,100.8-328.9,228.5-335.8,208.4,49.1-12.1,302.1-212.2,321.3-211.3Z"/>
        </g>
      </g>
    </g>
  </g>
</svg>